<svg width="181" height="108" viewBox="0 0 181 108" fill="none" xmlns="http://www.w3.org/2000/svg">
<path d="M16.576 107H4.032V62.52H36.288V74.104H16.576V80.44H32.64V92.024H16.576V107ZM63.7706 103.096C60.5066 106.232 56.2186 107.768 50.8426 107.768C45.4666 107.768 41.1786 106.232 37.9146 103.096C34.6506 99.96 33.0506 95.928 33.0506 90.936C33.0506 85.944 34.6506 81.912 37.9146 78.776C41.1786 75.64 45.4666 74.104 50.8426 74.104C56.2186 74.104 60.5066 75.64 63.7706 78.776C67.0346 81.912 68.6346 85.944 68.6346 90.936C68.6346 95.928 67.0346 99.96 63.7706 103.096ZM46.9386 96.696C47.8986 98.04 49.1786 98.744 50.8426 98.744C52.5066 98.744 53.7866 98.04 54.7466 96.696C55.7066 95.352 56.1546 93.432 56.1546 90.936C56.1546 88.44 55.7066 86.52 54.7466 85.176C53.7866 83.832 52.5066 83.128 50.8426 83.128C49.1786 83.128 47.8986 83.832 46.9386 85.176C45.9786 86.52 45.5306 88.44 45.5306 90.936C45.5306 93.432 45.9786 95.352 46.9386 96.696ZM91.6456 89.336L92.9896 91.384C95.4856 95.224 97.3416 96.632 100.094 96.632C101.054 96.632 101.95 96.504 102.654 96.184L102.398 107C101.054 107.32 99.7096 107.448 98.3656 107.448C94.9736 107.448 92.1576 106.808 89.9816 105.592C87.7416 104.376 85.6936 102.136 83.7096 98.744L82.1736 96.12L81.0856 97.272V107H68.9256V62.52H81.0856V86.776L89.9816 74.872H103.742L91.6456 89.336ZM114.158 107.768C106.414 107.768 102.062 103.288 102.062 95.16V74.872H114.222V93.176C114.222 96.44 115.438 98.104 117.806 98.104C120.558 98.104 122.478 95.928 122.478 92.152V74.872H134.638V107H123.374V102.072C121.198 105.848 118.126 107.768 114.158 107.768ZM150.984 107.768C140.744 107.768 134.28 103.416 134.216 96.568L145.736 95.416C146.056 98.36 147.976 99.832 151.368 99.832C153.8 99.832 155.016 99.128 155.016 97.784C155.016 96.824 154.248 96.184 152.648 95.864L149.064 95.224C145.032 94.52 142.664 93.752 139.848 92.152C136.968 90.552 135.496 87.8 135.496 83.96C135.496 78.008 141.576 74.104 151.368 74.104C160.392 74.104 165.832 77.944 166.856 83.512L156.104 86.072C155.528 83.384 153.928 82.04 151.368 82.04C148.936 82.04 147.72 82.744 147.72 84.088C147.72 85.176 148.744 85.816 150.728 86.136L154.248 86.648C157.896 87.16 160.456 87.928 163.08 89.464C165.64 91.064 167.048 93.752 167.048 97.4C167.048 100.664 165.576 103.224 162.568 105.016C159.56 106.872 155.72 107.768 150.984 107.768Z" fill="white"/>
<path d="M11.324 55H4.268V29.98H14.06L18.74 41.824L23.24 29.98H33.068V55H26.012V38.512L21.692 49.456H15.644L11.324 38.512V55ZM49.9801 48.16L55.4521 50.68C53.8681 53.848 50.8801 55.432 46.4521 55.432C43.3921 55.432 40.9081 54.604 39.0001 52.912C37.0561 51.22 36.0841 48.916 36.0841 45.964C36.0841 43.192 37.0561 40.924 38.9641 39.16C40.8721 37.396 43.2841 36.496 46.2001 36.496C49.0441 36.496 51.2761 37.324 52.9321 39.016C54.5521 40.708 55.3801 42.94 55.3801 45.748C55.3801 46.648 55.3801 47.224 55.3441 47.476H43.1761C43.5001 49.312 44.7241 50.356 46.5961 50.356C48.0361 50.356 49.1521 49.636 49.9801 48.16ZM45.9121 41.284C44.4721 41.284 43.4281 42.364 43.1761 44.092H48.4321C48.2521 42.22 47.3881 41.284 45.9121 41.284ZM64.7756 55.432C60.4196 55.432 57.9716 52.912 57.9716 48.34V36.928H64.8116V47.224C64.8116 49.06 65.4956 49.996 66.8276 49.996C68.3756 49.996 69.4556 48.772 69.4556 46.648V36.928H76.2956V55H69.9596V52.228C68.7356 54.352 67.0076 55.432 64.7756 55.432Z" fill="white"/>
</svg>
