<svg width="179" height="83" viewBox="0 0 179 83" fill="none" xmlns="http://www.w3.org/2000/svg">
<path d="M58.6525 0.584167C59.0168 2.19851 58.8705 3.78587 57.6817 6.54455L55.8302 10.7045L52.0417 0.584167H47.4185L53.4428 16.416H57.9529L61.9374 7.47579C63.147 4.63013 63.354 2.38462 62.9865 0.584167H58.6525Z" fill="white"/>
<path d="M79.3537 2.40216C77.8173 0.800855 75.872 0.00132752 73.5176 0.00357528C71.1412 0.00357528 69.1849 0.804227 67.6485 2.40553C66.1122 4.00683 65.344 6.04398 65.344 8.51696C65.344 10.9481 66.1178 12.9695 67.6653 14.5812C69.2129 16.1928 71.1637 16.9991 73.5176 17C75.872 17 77.8229 16.1937 79.3705 14.5812C80.8961 12.9691 81.6588 10.9477 81.6588 8.51696C81.6588 6.04218 80.8904 4.00391 79.3537 2.40216ZM76.1826 11.5494C75.4517 12.3896 74.5634 12.8097 73.5176 12.8097C72.4718 12.8097 71.5891 12.3896 70.8694 11.5494C70.1286 10.7092 69.758 9.69771 69.7576 8.51494C69.7576 7.31149 70.1172 6.28381 70.8364 5.43191C71.5556 4.58001 72.4493 4.15294 73.5176 4.15069C74.5854 4.15069 75.4791 4.57776 76.1988 5.43191C76.9184 6.28606 77.278 7.31374 77.2776 8.51494C77.2776 9.69771 76.9126 10.7092 76.1826 11.5494Z" fill="white"/>
<path d="M27.0653 8.76984V6.67943C27.0653 2.38801 25.1454 0.242072 21.3056 0.241622C19.6748 0.241622 18.0164 0.801539 16.3303 1.92137C15.369 0.80064 13.908 0.239599 11.9471 0.238251C10.5233 0.238251 9.08019 0.663976 7.61761 1.51543C6.86319 1.95004 6.01463 2.17636 5.15259 2.1729H4V16.416H8.35343V5.22625C9.44713 4.61441 10.389 4.30827 11.1789 4.30782C11.8187 4.30782 12.3522 4.50225 12.7793 4.89111C13.2065 5.27997 13.42 5.81943 13.42 6.5095V16.416H17.7094V6.67943C17.7106 6.20953 17.6842 5.74 17.6304 5.27345C18.7578 4.63239 19.7259 4.31164 20.5349 4.31119C21.1747 4.31119 21.7082 4.50562 22.1353 4.89448C22.5624 5.28334 22.7758 5.82281 22.7753 6.51287V16.416H27.0738V8.76647L27.0653 8.76984Z" fill="white"/>
<path d="M44.7457 11.4833L44.624 11.5885C43.3245 12.7106 40.8705 13.6614 38.2385 12.6492C37.4205 12.3121 36.7145 11.66 36.2259 10.8036C38.2055 11.3687 40.3567 11.2851 41.9907 10.5784C42.8151 10.2412 43.5568 9.71663 44.162 9.04294C45.5812 7.45557 45.941 5.18241 45.0777 3.25113C44.8475 2.73065 44.5334 2.25512 44.149 1.84516C43.2048 0.847157 41.8704 0.205871 40.391 0.0406612C37.9266 -0.236488 35.2836 0.917287 33.4547 3.06974C33.1215 2.37208 32.883 1.62949 32.7461 0.863341L32.7286 0.764215H28.9492L28.966 0.89908C29.2618 3.26462 30.2972 5.61061 31.8135 7.34768L31.8064 7.38139C31.4958 11.2763 33.5848 14.9399 36.8866 16.2913L36.9183 16.3041C37.7099 16.6118 38.5343 16.8186 39.3736 16.9198C39.7604 16.9654 40.1493 16.9879 40.5385 16.9872C42.5286 16.9871 44.4763 16.3874 46.1468 15.2602L46.2283 15.2056L44.7457 11.4833ZM36.0168 6.4933C36.609 4.89987 38.2638 3.72856 39.8351 3.8088C40.3593 3.83645 41.0647 4.06572 41.3345 4.62204C41.4496 4.87624 41.4956 5.15848 41.4674 5.43801C41.4392 5.71755 41.338 5.98366 41.1747 6.20739C40.9911 6.45733 40.7551 6.66029 40.4848 6.8008L40.4479 6.82103C39.703 7.23574 38.4838 7.34026 37.4147 7.08132C36.9223 6.9609 36.4508 6.76186 36.0168 6.49128V6.4933Z" fill="white"/>
<path d="M16.576 71H4.032V26.52H36.288V38.104H16.576V44.44H32.64V56.024H16.576V71ZM63.7706 67.096C60.5066 70.232 56.2186 71.768 50.8426 71.768C45.4666 71.768 41.1786 70.232 37.9146 67.096C34.6506 63.96 33.0506 59.928 33.0506 54.936C33.0506 49.944 34.6506 45.912 37.9146 42.776C41.1786 39.64 45.4666 38.104 50.8426 38.104C56.2186 38.104 60.5066 39.64 63.7706 42.776C67.0346 45.912 68.6346 49.944 68.6346 54.936C68.6346 59.928 67.0346 63.96 63.7706 67.096ZM46.9386 60.696C47.8986 62.04 49.1786 62.744 50.8426 62.744C52.5066 62.744 53.7866 62.04 54.7466 60.696C55.7066 59.352 56.1546 57.432 56.1546 54.936C56.1546 52.44 55.7066 50.52 54.7466 49.176C53.7866 47.832 52.5066 47.128 50.8426 47.128C49.1786 47.128 47.8986 47.832 46.9386 49.176C45.9786 50.52 45.5306 52.44 45.5306 54.936C45.5306 57.432 45.9786 59.352 46.9386 60.696ZM91.6456 53.336L92.9896 55.384C95.4856 59.224 97.3416 60.632 100.094 60.632C101.054 60.632 101.95 60.504 102.654 60.184L102.398 71C101.054 71.32 99.7096 71.448 98.3656 71.448C94.9736 71.448 92.1576 70.808 89.9816 69.592C87.7416 68.376 85.6936 66.136 83.7096 62.744L82.1736 60.12L81.0856 61.272V71H68.9256V26.52H81.0856V50.776L89.9816 38.872H103.742L91.6456 53.336ZM114.158 71.768C106.414 71.768 102.062 67.288 102.062 59.16V38.872H114.222V57.176C114.222 60.44 115.438 62.104 117.806 62.104C120.558 62.104 122.478 59.928 122.478 56.152V38.872H134.638V71H123.374V66.072C121.198 69.848 118.126 71.768 114.158 71.768ZM150.984 71.768C140.744 71.768 134.28 67.416 134.216 60.568L145.736 59.416C146.056 62.36 147.976 63.832 151.368 63.832C153.8 63.832 155.016 63.128 155.016 61.784C155.016 60.824 154.248 60.184 152.648 59.864L149.064 59.224C145.032 58.52 142.664 57.752 139.848 56.152C136.968 54.552 135.496 51.8 135.496 47.96C135.496 42.008 141.576 38.104 151.368 38.104C160.392 38.104 165.832 41.944 166.856 47.512L156.104 50.072C155.528 47.384 153.928 46.04 151.368 46.04C148.936 46.04 147.72 46.744 147.72 48.088C147.72 49.176 148.744 49.816 150.728 50.136L154.248 50.648C157.896 51.16 160.456 51.928 163.08 53.464C165.64 55.064 167.048 57.752 167.048 61.4C167.048 64.664 165.576 67.224 162.568 69.016C159.56 70.872 155.72 71.768 150.984 71.768Z" fill="white"/>
</svg>
